<?xml version="1.0" encoding="UTF-8"?>
<svg width="1195px" height="215px" viewBox="0 0 1195 215" version="1.1" xmlns="http://www.w3.org/2000/svg" xmlns:xlink="http://www.w3.org/1999/xlink">
    <!-- Generator: Sketch 60.1 (88133) - https://sketch.com -->
    <title>Path 2_looper</title>
    <desc>Created with Sketch.</desc>
    <g id="Page" stroke="none" stroke-width="1" fill="none" fill-rule="evenodd" stroke-dasharray="5" stroke-opacity="0.189657998">
        <g id="Desktop-HD" transform="translate(-108.000000, -823.000000)" stroke="#979797">
            <g id="Path-2_looper" transform="translate(109.000000, 824.000000)">
                <path d="M80,161.067299 C127.283101,44.5157062 225.948224,-8.7815488 375.995367,1.17553397 C601.066083,16.1111581 666.173115,209.953695 860.632033,212.869803 C990.271311,214.813875 1101.39397,148.338055 1194,13.4423414" id="Path-2_5"></path>
                <path d="M60,160.3171 C106.858657,44.3083666 204.638096,-8.74064723 353.338317,1.17005872 C576.388649,16.0361176 640.911238,208.975799 833.624564,211.878325 C962.100114,213.813343 1072.22526,147.647145 1164,13.3797314" id="Path-2_4"></path>
                <path d="M40,159.567018 C86.4342126,44.1010592 183.327968,-8.69975199 330.681267,1.16458432 C551.711216,15.9610888 615.649361,207.998055 806.617095,210.887001 C933.928917,212.812965 1043.05655,146.956342 1134,13.317131" id="Path-2_3"></path>
                <path d="M20,159.780095 C66.0097683,44.8835698 162.017841,-7.65684818 308.024217,2.15884104 C527.033783,16.8823749 590.387484,207.972289 779.609626,210.846988 C905.757721,212.763454 1013.88785,147.23161 1104,14.2514561" id="Path-2_2"></path>
                <path d="M0,159.564028 C45.595935,45.5474738 140.740466,-6.59054701 285.433594,3.14996569 C502.473285,17.7607347 565.257154,207.387128 752.777344,210.239809 C877.790804,212.141597 984.948356,147.111649 1074.25,15.1499657" id="Path-2_1"></path>
            </g>
        </g>
    </g>
</svg>